<?xml version="1.0" encoding="UTF-8" standalone="no"?>
<!DOCTYPE svg PUBLIC "-//W3C//DTD SVG 20010904//EN"
              "http://www.w3.org/TR/2001/REC-SVG-20010904/DTD/svg10.dtd">

<svg xmlns="http://www.w3.org/2000/svg"
     width="3.6in" height="3.6in"
     viewBox="0 0 1080 1080">
  <path id="Seleção"
        fill="none" stroke="black" stroke-width="1"
        d="M 539.00,66.00
           C 539.00,66.00 541.00,66.00 541.00,66.00
             541.00,66.00 595.12,141.00 595.12,141.00
             595.12,141.00 620.09,174.79 620.09,174.79
             620.09,174.79 645.00,190.20 645.00,190.20
             645.00,190.20 700.00,222.40 700.00,222.40
             700.00,222.40 742.00,247.00 742.00,247.00
             742.00,247.00 761.00,257.83 761.00,257.83
             761.00,257.83 768.00,257.83 768.00,257.83
             768.00,257.83 931.00,257.83 931.00,257.83
             931.00,257.83 909.42,312.00 909.42,312.00
             909.42,312.00 874.40,398.00 874.40,398.00
             874.40,398.00 861.72,429.00 861.72,429.00
             857.84,438.01 854.02,445.04 854.00,455.00
             854.00,455.00 854.00,618.00 854.00,618.00
             854.02,628.07 856.27,629.98 859.99,639.00
             859.99,639.00 873.80,672.00 873.80,672.00
             873.80,672.00 914.42,769.00 914.42,769.00
             914.42,769.00 932.00,812.00 932.00,812.00
             932.00,812.00 806.00,812.00 806.00,812.00
             806.00,812.00 791.00,813.00 791.00,813.00
             791.00,813.00 766.00,813.00 766.00,813.00
             755.52,813.02 750.93,817.64 742.00,822.72
             742.00,822.72 700.00,847.15 700.00,847.15
             700.00,847.15 649.00,876.72 649.00,876.72
             649.00,876.72 621.30,893.38 621.30,893.38
             621.30,893.38 594.85,929.00 594.85,929.00
             594.85,929.00 541.00,1003.00 541.00,1003.00
             541.00,1003.00 539.00,1003.00 539.00,1003.00
             539.00,1003.00 487.71,931.00 487.71,931.00
             487.71,931.00 470.58,907.00 470.58,907.00
             467.79,903.10 463.33,896.33 459.91,893.38
             459.91,893.38 430.00,875.72 430.00,875.72
             430.00,875.72 378.00,845.72 378.00,845.72
             378.00,845.72 337.00,822.15 337.00,822.15
             327.54,816.72 323.25,812.02 312.00,812.00
             312.00,812.00 287.00,812.00 287.00,812.00
             287.00,812.00 272.00,813.00 272.00,813.00
             272.00,813.00 198.00,813.00 198.00,813.00
             198.00,813.00 181.00,814.00 181.00,814.00
             181.00,814.00 149.00,814.00 149.00,814.00
             149.00,814.00 167.58,769.00 167.58,769.00
             167.58,769.00 206.60,675.00 206.60,675.00
             206.60,675.00 219.85,643.00 219.85,643.00
             223.64,634.11 226.98,628.83 227.00,619.00
             227.00,619.00 227.00,459.00 227.00,459.00
             226.98,448.39 223.56,442.68 219.81,433.00
             219.81,433.00 207.20,400.00 207.20,400.00
             207.20,400.00 170.58,304.00 170.58,304.00
             170.58,304.00 153.00,256.00 153.00,256.00
             153.00,256.00 183.00,256.00 183.00,256.00
             183.00,256.00 200.00,257.00 200.00,257.00
             200.00,257.00 241.00,257.00 241.00,257.00
             241.00,257.00 258.00,258.00 258.00,258.00
             258.00,258.00 301.00,258.00 301.00,258.00
             301.00,258.00 319.00,258.59 319.00,258.59
             319.00,258.59 339.00,247.60 339.00,247.60
             339.00,247.60 377.00,225.28 377.00,225.28
             377.00,225.28 434.00,191.80 434.00,191.80
             434.00,191.80 460.68,175.62 460.68,175.62
             460.68,175.62 470.00,163.00 470.00,163.00
             470.00,163.00 487.14,139.00 487.14,139.00
             487.14,139.00 539.00,66.00 539.00,66.00 Z" />
</svg>
